<svg width="64" height="64" viewBox="0 0 64 64" fill="none" xmlns="http://www.w3.org/2000/svg">
  <rect width="64" height="64" rx="18" fill="#08100D"/>
  <rect x="6" y="6" width="52" height="52" rx="14" fill="#133122"/>
  <path d="M16 24H48L45.6 33.2C45 35.48 42.95 37 40.59 37C38.35 37 36.36 35.58 35.62 33.46L34.98 31.64L34.34 33.46C33.6 35.58 31.61 37 29.37 37C27.13 37 25.14 35.58 24.4 33.46L23.76 31.64L23.12 33.46C22.38 35.58 20.39 37 18.15 37C15.79 37 13.74 35.48 13.14 33.2L16 24Z" fill="#F5FFF7"/>
  <path d="M18 23.2C18 19.78 20.78 17 24.2 17H39.8C43.22 17 46 19.78 46 23.2V24H18V23.2Z" fill="#7CF0AE"/>
  <path d="M20 37H44V47.5C44 49.99 41.99 52 39.5 52H24.5C22.01 52 20 49.99 20 47.5V37Z" fill="#DDF8E7"/>
  <rect x="24" y="40" width="8.5" height="12" rx="2.8" fill="#133122"/>
  <rect x="34.5" y="40" width="5.8" height="5.8" rx="1.8" fill="#7CF0AE"/>
</svg>
